<!-- Generated by IcoMoon.io -->
<svg version="1.1" xmlns="http://www.w3.org/2000/svg" width="1024" height="1024" viewBox="0 0 1024 1024">
<title></title>
<g id="icomoon-ignore">
</g>
<path d="M622.592 363.52c30.72 0 55.296 25.6 55.296 56.32s-24.576 56.32-55.296 56.32-56.32-25.6-56.32-56.32 25.6-56.32 56.32-56.32zM373.76 347.136c0-36.864 30.72-67.584 67.584-67.584s66.56 30.72 66.56 67.584-29.696 67.584-66.56 67.584-67.584-30.72-67.584-67.584zM396.288 347.136c0 24.576 20.48 45.056 45.056 45.056s44.032-20.48 44.032-45.056-19.456-45.056-44.032-45.056-45.056 20.48-45.056 45.056zM445.44 176.128c0-47.104 38.912-86.016 86.016-86.016s86.016 38.912 86.016 86.016-38.912 86.016-86.016 86.016-86.016-38.912-86.016-86.016zM468.992 176.128c0 34.816 27.648 62.464 62.464 62.464s62.464-27.648 62.464-62.464-28.672-62.464-62.464-62.464c-33.792 0-62.464 28.672-62.464 62.464zM750.592 890.88c-14.336 1.024-31.744 2.048-26.624 23.552 6.144 18.432 12.288 39.936 36.864 43.008 17.408 2.048 28.672-10.24 25.6-28.672-3.072-17.408-8.192-39.936-35.84-37.888zM64.512 215.040c0-81.92 66.56-149.504 149.504-149.504s149.504 67.584 149.504 149.504-67.584 150.528-149.504 150.528-149.504-67.584-149.504-150.528zM91.136 215.040c0 68.608 55.296 123.904 122.88 123.904s121.856-55.296 121.856-123.904-54.272-122.88-121.856-122.88-122.88 55.296-122.88 122.88zM849.92 567.296c-13.312 5.12-26.624 10.24-39.936 14.336-205.824 72.704-416.768 80.896-630.784 55.296-25.6-3.072-56.32-11.264-41.984 31.744 29.696 93.184 99.328 206.848 240.64 197.632 43.008-3.072 86.016-1.024 129.024-1.024s86.016 0 129.024 0c165.888 0 260.096-82.944 281.6-246.784 10.24-77.824 6.144-80.896-67.584-51.2zM954.368 435.2c-14.336-26.624-37.888-14.336-58.368-3.072-241.664 124.928-498.688 133.12-760.832 95.232-25.6-4.096-57.344-17.408-62.464 22.528-6.144 38.912 29.696 37.888 54.272 43.008 82.944 15.36 166.912 17.408 232.448 20.48 208.896-1.024 393.216-31.744 564.224-121.856 22.528-11.264 48.128-25.6 30.72-56.32zM294.912 894.976c-25.6-5.12-29.696 18.432-34.816 34.816-4.096 16.384 9.216 27.648 24.576 28.672 25.6 1.024 34.816-23.552 38.912-43.008 5.12-21.504-18.432-18.432-28.672-20.48z"></path>
</svg>
