<!-- Generated by IcoMoon.io -->
<svg version="1.1" xmlns="http://www.w3.org/2000/svg" width="1024" height="1024" viewBox="0 0 1024 1024">
<title></title>
<g id="icomoon-ignore">
</g>
<path d="M200.704 473.088c23.552 157.696 46.080 314.368 68.608 471.040 2.048 12.288 6.144 16.384 17.408 16.384 35.84-1.024 70.656-1.024 106.496-1.024 114.688 0 228.352 0 342.016 0 12.288 0 19.456 0 21.504-15.36 3.072-28.672 9.216-56.32 13.312-84.992 4.096-26.624 8.192-54.272 12.288-81.92-27.648-1.024-53.248 0-78.848-4.096-80.896-14.336-142.336-59.392-186.368-128-6.144-10.24-12.288-18.432-25.6-21.504-20.48-5.12-31.744-28.672-27.648-53.248 3.072-21.504 20.48-34.816 41.984-35.84 32.768 0 51.2 25.6 44.032 60.416-1.024 6.144 0 14.336 3.072 19.456 52.224 81.92 123.904 125.952 224.256 115.712 11.264-1.024 14.336-5.12 15.36-15.36 10.24-62.464 20.48-124.928 29.696-188.416 3.072-21.504 6.144-43.008 9.216-64.512h-630.784c0 4.096 0 8.192 0 11.264zM233.472 328.704c13.312-8.192 14.336-18.432 3.072-38.912-8.192-16.384-13.312-33.792-2.048-51.2 12.288-17.408 31.744-20.48 51.2-18.432 21.504 2.048 36.864 12.288 48.128 29.696 4.096 6.144 6.144 15.36 11.264 20.48 7.168 7.168 17.408 14.336 25.6 14.336 6.144 0 14.336-10.24 19.456-16.384 4.096-6.144 4.096-14.336 7.168-21.504 20.48-57.344 75.776-93.184 133.12-87.040 73.728 7.168 119.808 58.368 123.904 138.24 1.024 12.288 0 26.624 14.336 29.696 9.216 1.024 22.528-2.048 31.744-8.192 31.744-23.552 62.464-18.432 82.944 15.36 3.072 5.12 10.24 12.288 14.336 11.264 5.12-1.024 11.264-8.192 13.312-13.312 14.336-36.864-7.168-74.752-47.104-77.824-20.48-2.048-40.96 1.024-63.488 2.048-13.312-78.848-58.368-133.12-139.264-147.456-87.040-15.36-153.6 21.504-196.608 92.16-26.624-9.216-50.176-23.552-74.752-26.624-39.936-5.12-75.776 7.168-98.304 43.008-22.528 34.816-12.288 67.584 7.168 100.352 9.216 14.336 21.504 18.432 34.816 10.24zM845.824 397.312c-2.048-15.36-11.264-24.576-26.624-26.624-7.168-1.024-15.36-1.024-22.528-1.024h-563.2c-7.168 0-14.336 0-22.528 1.024-16.384 2.048-25.6 12.288-26.624 28.672-2.048 15.36 6.144 26.624 21.504 31.744 7.168 2.048 14.336 3.072 20.48 3.072 192.512 0 384 0 576.512 0 7.168 0 14.336-1.024 21.504-3.072 15.36-5.12 22.528-17.408 21.504-33.792zM749.568 225.28c40.96 0 73.728-32.768 73.728-73.728 0-41.984-33.792-75.776-73.728-75.776-39.936 1.024-73.728 34.816-74.752 74.752 0 40.96 33.792 74.752 74.752 74.752zM750.592 107.52c22.528 0 41.984 19.456 43.008 43.008 0 23.552-21.504 45.056-44.032 44.032-23.552 0-43.008-20.48-43.008-43.008 0-24.576 18.432-44.032 44.032-44.032zM340.992 171.008c29.696 0 55.296-25.6 55.296-54.272s-24.576-53.248-54.272-53.248c-29.696 1.024-53.248 24.576-53.248 53.248s23.552 53.248 52.224 54.272zM342.016 94.208c13.312 0 21.504 8.192 22.528 22.528-1.024 13.312-7.168 21.504-21.504 22.528-13.312 1.024-24.576-9.216-23.552-22.528s9.216-22.528 22.528-22.528z"></path>
</svg>
