<!-- Generated by IcoMoon.io -->
<svg version="1.1" xmlns="http://www.w3.org/2000/svg" width="1024" height="1024" viewBox="0 0 1024 1024">
<title></title>
<g id="icomoon-ignore">
</g>
<path d="M960.512 283.648c0-40.96-33.792-73.728-74.752-73.728h-747.52c-40.96 0-73.728 32.768-73.728 73.728v41.984h896v-41.984zM64.512 449.536v290.816c0 40.96 32.768 74.752 73.728 74.752h747.52c40.96 0 74.752-33.792 74.752-74.752v-290.816h-896zM338.944 708.608c0 3.072-2.048 6.144-5.12 6.144h-159.744c-3.072 0-5.12-3.072-5.12-6.144v-51.2c0-3.072 2.048-6.144 5.12-6.144h159.744c3.072 0 5.12 3.072 5.12 6.144v51.2z"></path>
</svg>
