<!-- Generated by IcoMoon.io -->
<svg version="1.1" xmlns="http://www.w3.org/2000/svg" width="1024" height="1024" viewBox="0 0 1024 1024">
<title></title>
<g id="icomoon-ignore">
</g>
<path d="M733.184 409.6c5.12 4.096 12.288 3.072 16.384-1.024 13.312-11.264 26.624-22.528 38.912-33.792 5.12-4.096 5.12-10.24 0-14.336-120.832-100.352-318.464-135.168-488.448-43.008-90.112 49.152-155.648 119.808-197.632 212.992-24.576 54.272-37.888 111.616-37.888 171.008-1.024 6.144 4.096 10.24 10.24 10.24h51.2c6.144 0 11.264-4.096 11.264-10.24 10.24-146.432 76.8-259.072 210.944-324.608 133.12-65.536 263.168-49.152 385.024 32.768zM864.256 435.2c-4.096-5.12-10.24-5.12-13.312 0-12.288 13.312-24.576 26.624-35.84 39.936-4.096 5.12-4.096 12.288-1.024 16.384 22.528 31.744 39.936 64.512 52.224 100.352s18.432 72.704 19.456 109.568c1.024 6.144 5.12 10.24 11.264 10.24h52.224c6.144 0 11.264-4.096 10.24-10.24-2.048-99.328-34.816-187.392-95.232-266.24zM812.032 410.624c-1.024 2.048-3.072 3.072-5.12 4.096-92.16 81.92-183.296 162.816-275.456 243.712-6.144 5.12-11.264 8.192-19.456 7.168-34.816 0-57.344 34.816-44.032 65.536 9.216 21.504 31.744 32.768 55.296 27.648 20.48-4.096 34.816-23.552 35.84-46.080 0-5.12 0-11.264 3.072-15.36 64.512-72.704 128-145.408 192.512-218.112 19.456-22.528 39.936-44.032 59.392-66.56l-2.048-2.048z"></path>
</svg>
