<!-- Generated by IcoMoon.io -->
<svg version="1.1" xmlns="http://www.w3.org/2000/svg" width="1024" height="1024" viewBox="0 0 1024 1024">
<title></title>
<g id="icomoon-ignore">
</g>
<path d="M884.736 463.872h-1.024c-17.408 0-22.528-10.24-10.24-23.552l25.6-24.576c9.216-9.216 9.216-24.576 0-33.792l-33.792-33.792c-4.096-4.096-10.24-6.144-17.408-6.144-6.144 0-13.312 2.048-17.408 6.144l-65.536 66.56c-13.312 12.288-23.552 8.192-23.552-10.24v-169.984c0-3.072 0-8.192-39.936-121.856 0 0 0-1.024 0-1.024-1.024-1.024 0-1.024 0-2.048h1.024c8.192-4.096 13.312-12.288 13.312-20.48v-3.072c0-12.288-10.24-22.528-22.528-22.528h-117.76c-12.288 0-22.528 10.24-22.528 22.528v3.072c0 9.216 6.144 17.408 14.336 20.48 0 0 1.024 1.024 1.024 1.024 1.024 0 1.024 0 1.024 1.024l-1.024 1.024c-40.96 112.64-40.96 118.784-40.96 121.856v225.28l-117.76-131.072c-12.288-13.312-32.768-15.36-47.104-4.096l-106.496 83.968-59.392-60.416c-4.096-4.096-11.264-6.144-17.408-6.144-7.168 0-13.312 2.048-17.408 6.144l-33.792 33.792c-4.096 4.096-7.168 10.24-7.168 17.408 0 6.144 3.072 12.288 7.168 17.408l24.576 24.576c13.312 12.288 8.192 22.528-9.216 22.528h-4.096c-18.432 0-32.768 14.336-32.768 31.744v60.416c0 17.408 13.312 32.768 28.672 32.768s32.768 13.312 36.864 30.72l84.992 309.248c5.12 17.408 23.552 31.744 40.96 31.744h428.032c17.408 0 35.84-14.336 40.96-31.744l84.992-309.248c4.096-17.408 20.48-30.72 36.864-30.72 15.36 0 28.672-15.36 28.672-32.768v-60.416c0-17.408-14.336-31.744-32.768-31.744zM592.896 122.88h82.944l43.008 112.64h-163.84l37.888-112.64zM344.064 854.016c0 6.144-5.12 11.264-11.264 11.264-7.168 0-12.288-5.12-12.288-11.264v-210.944c0-6.144 5.12-11.264 12.288-11.264 6.144 0 11.264 5.12 11.264 11.264v210.944zM463.872 854.016c0 6.144-5.12 11.264-11.264 11.264s-11.264-5.12-11.264-11.264v-210.944c0-6.144 5.12-11.264 11.264-11.264s11.264 5.12 11.264 11.264v210.944zM582.656 854.016c0 6.144-5.12 11.264-11.264 11.264s-11.264-5.12-11.264-11.264v-210.944c0-6.144 5.12-11.264 11.264-11.264s11.264 5.12 11.264 11.264v210.944zM699.392 854.016c0 6.144-5.12 11.264-11.264 11.264s-11.264-5.12-11.264-11.264v-210.944c0-6.144 5.12-11.264 11.264-11.264s11.264 5.12 11.264 11.264v210.944zM893.952 533.504c0 17.408-13.312 31.744-31.744 31.744h-700.416c-18.432 0-31.744-14.336-31.744-31.744v-14.336c0-18.432 13.312-32.768 31.744-32.768h36.864c17.408 0 21.504-10.24 8.192-22.528l-40.96-41.984c-13.312-12.288-15.36-30.72-5.12-40.96 9.216-10.24 27.648-8.192 40.96 4.096l100.352 100.352c0 1.024 291.84 1.024 390.144 1.024 18.432 0 43.008-10.24 55.296-22.528l76.8-77.824c12.288-13.312 31.744-15.36 41.984-5.12 10.24 9.216 7.168 27.648-5.12 39.936l-41.984 41.984c-12.288 13.312-8.192 23.552 10.24 23.552h32.768c17.408 0 31.744 14.336 31.744 31.744v15.36z"></path>
</svg>
