<!-- Generated by IcoMoon.io -->
<svg version="1.1" xmlns="http://www.w3.org/2000/svg" width="1024" height="1024" viewBox="0 0 1024 1024">
<title></title>
<g id="icomoon-ignore">
</g>
<path d="M705.536 63.488c-54.272 0-99.328 41.984-103.424 96.256l-27.648 385.024c-1.024 16.384 5.12 33.792 16.384 46.080s27.648 19.456 44.032 19.456h2.048l-9.216 301.056c-1.024 13.312 4.096 25.6 13.312 34.816 8.192 9.216 20.48 13.312 33.792 13.312h39.936c25.6 0 48.128-20.48 48.128-47.104v-791.552c0-31.744-25.6-57.344-57.344-57.344zM478.208 64.512h-4.096c-10.24 0-17.408 7.168-17.408 17.408v168.96c0 15.36-12.288 27.648-27.648 27.648h-4.096c-15.36 0-27.648-12.288-27.648-27.648v-169.984c0-9.216-7.168-16.384-17.408-16.384h-3.072c-10.24 0-17.408 7.168-17.408 16.384v169.984c0 15.36-12.288 27.648-27.648 27.648h-4.096c-15.36 0-26.624-12.288-26.624-27.648v-169.984c0-9.216-8.192-16.384-18.432-16.384h-3.072c-10.24 0-18.432 7.168-18.432 16.384v257.024c0 31.744 26.624 56.32 57.344 56.32h8.192l-16.384 517.12c-1.024 13.312 4.096 25.6 13.312 34.816s21.504 13.312 33.792 13.312h37.888c13.312 0 25.6-4.096 34.816-13.312s13.312-21.504 13.312-34.816l-16.384-517.12h11.264c31.744 0 56.32-24.576 56.32-56.32v-257.024c0-9.216-7.168-16.384-16.384-16.384z"></path>
</svg>
