<!-- Generated by IcoMoon.io -->
<svg version="1.1" xmlns="http://www.w3.org/2000/svg" width="1024" height="1024" viewBox="0 0 1024 1024">
<title></title>
<g id="icomoon-ignore">
</g>
<path d="M826.368 500.736c0-10.24-1.024-19.456-4.096-28.672-6.144-19.456-27.648-30.72-47.104-27.648-22.528 4.096-34.816 18.432-34.816 40.96-1.024 28.672 0 58.368-1.024 87.040 0 3.072 0 6.144-1.024 9.216 0 5.12-2.048 9.216-4.096 9.216s-5.12-4.096-6.144-9.216c0-3.072-1.024-6.144-1.024-9.216 0-40.96 0-81.92 0-122.88-1.024-24.576-21.504-44.032-45.056-43.008-24.576 0-38.912 16.384-38.912 43.008 0 29.696 0 58.368 0 88.064 0 3.072-1.024 6.144-2.048 9.216 0 2.048-1.024 3.072-2.048 4.096-2.048 3.072-6.144 1.024-7.168-2.048-1.024-2.048-1.024-4.096-1.024-6.144 0-4.096-1.024-7.168-1.024-11.264 0-38.912 1.024-77.824-2.048-115.712-1.024-27.648-21.504-44.032-46.080-41.984-24.576 1.024-40.96 20.48-41.984 48.128 0 34.816 1.024 69.632 0 104.448 0 3.072 0 6.144-1.024 9.216-1.024 5.12-4.096 8.192-6.144 8.192s-4.096-5.12-4.096-11.264c-1.024-4.096-1.024-8.192-1.024-11.264 0-61.44 0-122.88 0-185.344 0-13.312 0-26.624 0-39.936 0-34.816-22.528-58.368-52.224-58.368-30.72 0-50.176 22.528-50.176 59.392v38.912c0 99.328 0 198.656 0 297.984 0 3.072-1.024 6.144-2.048 9.216-1.024 5.12-6.144 8.192-11.264 6.144-3.072-1.024-6.144-3.072-9.216-4.096-25.6-21.504-51.2-44.032-76.8-65.536-14.336-11.264-30.72-17.408-50.176-11.264-20.48 6.144-33.792 19.456-38.912 40.96-5.12 22.528 4.096 38.912 20.48 53.248 56.32 48.128 113.664 95.232 169.984 144.384 8.192 6.144 14.336 16.384 17.408 25.6 11.264 36.864 22.528 74.752 31.744 111.616 3.072 12.288 9.216 15.36 20.48 15.36 84.992 0 168.96 0 252.928 1.024 13.312 0 19.456-6.144 21.504-17.408 5.12-20.48 10.24-40.96 15.36-61.44 3.072-11.264 5.12-25.6 12.288-33.792 20.48-24.576 27.648-53.248 27.648-83.968 0-88.064 0-176.128 0-263.168zM477.184 181.248c90.112 0 162.816 72.704 162.816 161.792h26.624c0-104.448-84.992-188.416-189.44-188.416s-189.44 83.968-189.44 188.416c0 45.056 15.36 86.016 40.96 118.784l20.48-18.432c-21.504-27.648-34.816-62.464-34.816-100.352 0-89.088 72.704-161.792 162.816-161.792zM275.456 490.496c4.096-1.024 7.168-2.048 10.24-2.048-30.72-39.936-48.128-90.112-48.128-144.384 0-133.12 107.52-240.64 239.616-240.64s239.616 107.52 239.616 240.64c0 0 0 0 0 1.024 0 0 0 0 0 1.024h1.024l38.912 5.12c0-2.048 0-5.12 0-8.192 0-153.6-124.928-279.552-279.552-279.552s-279.552 125.952-279.552 280.576c0 60.416 19.456 115.712 52.224 161.792 6.144-7.168 15.36-12.288 25.6-15.36z"></path>
</svg>
