<!-- Generated by IcoMoon.io -->
<svg version="1.1" xmlns="http://www.w3.org/2000/svg" width="1024" height="1024" viewBox="0 0 1024 1024">
<title></title>
<g id="icomoon-ignore">
</g>
<path d="M948.224 433.152l-98.304-69.632c1.024-3.072 1.024-6.144 1.024-9.216 0-24.576 0-48.128 0-71.68s0-48.128 0-72.704c0-13.312-4.096-17.408-17.408-17.408-31.744 0-63.488 0-94.208 0-13.312 0-17.408 4.096-17.408 17.408v63.488l-194.56-137.216c-14.336-9.216-16.384-10.24-29.696 0l-249.856 175.104c-57.344 40.96-114.688 81.92-173.056 122.88-11.264 8.192-13.312 13.312-7.168 23.552 19.456 27.648 37.888 54.272 57.344 81.92 2.048 3.072 7.168 5.12 11.264 9.216 5.12-3.072 10.24-6.144 14.336-8.192l20.48-15.36c-1.024 3.072-1.024 6.144-1.024 9.216 0 112.64 0 226.304 0 338.944 0 17.408 4.096 21.504 21.504 21.504h212.992c18.432 0 21.504-3.072 21.504-21.504v-301.056h172.032v302.080c0 16.384 4.096 20.48 20.48 20.48h214.016c15.36 0 19.456-4.096 19.456-19.456 0-114.688 0-229.376 0-344.064 0-2.048 0-5.12-1.024-7.168l23.552 16.384c13.312 9.216 18.432 8.192 27.648-5.12l51.2-73.728c10.24-14.336 9.216-18.432-5.12-28.672z"></path>
</svg>
