<!-- Generated by IcoMoon.io -->
<svg version="1.1" xmlns="http://www.w3.org/2000/svg" width="1024" height="1024" viewBox="0 0 1024 1024">
<title></title>
<g id="icomoon-ignore">
</g>
<path d="M896 944.128c1.024-35.84 0-70.656-6.144-106.496-7.168-48.128-28.672-83.968-75.776-102.4l-5.12-3.072c-33.792-15.36-69.632-24.576-105.472-34.816-20.48-6.144-41.984-12.288-62.464-18.432 0 1.024 0 1.024 0 2.048v6.144c2.048 22.528 3.072 46.080-6.144 68.608-24.576 59.392-61.44 109.568-113.664 146.432-7.168 5.12-11.264 5.12-17.408 0-53.248-36.864-90.112-87.040-114.688-146.432-5.12-11.264-6.144-23.552-7.168-35.84 0-14.336 0-27.648 2.048-40.96-1.024 0-2.048 0-3.072 0-40.96 12.288-81.92 24.576-122.88 37.888-30.72 9.216-59.392 21.504-84.992 40.96-10.24 8.192-18.432 17.408-23.552 29.696-8.192 19.456-13.312 38.912-16.384 60.416-2.048 13.312-3.072 26.624-5.12 39.936 0 21.504 0 43.008 0 64.512 0 6.144 1.024 8.192 7.168 8.192 253.952-1.024 507.904-1.024 761.856-1.024 0-5.12-1.024-10.24-1.024-15.36zM205.824 468.992c0 4.096 0 9.216 0 13.312 1.024 22.528 18.432 41.984 44.032 46.080 17.408 2.048 34.816 2.048 52.224 1.024 4.096 0 10.24-5.12 13.312-9.216 3.072-3.072 2.048-8.192 2.048-12.288v-31.744c17.408 43.008 49.152 75.776 89.088 99.328 12.288 8.192 25.6 14.336 40.96 18.432-78.848-72.704-71.68-195.584-47.104-244.736 3.072 1.024 4.096 4.096 5.12 6.144 40.96 60.416 99.328 93.184 172.032 99.328 25.6 3.072 52.224 0 76.8-7.168 6.144-1.024 8.192 1.024 7.168 6.144-1.024 6.144-1.024 12.288-2.048 18.432-7.168 46.080-24.576 86.016-59.392 118.784l-3.072 1.024c-18.432 4.096-28.672 18.432-26.624 33.792s17.408 27.648 37.888 27.648c17.408 1.024 34.816 1.024 52.224 0 10.24 0 20.48-2.048 26.624-9.216 6.144-6.144 12.288-6.144 20.48-7.168 26.624-1.024 52.224-5.12 76.8-14.336 56.32-20.48 90.112-55.296 95.232-107.52 3.072-28.672 1.024-58.368 1.024-88.064 0-22.528-9.216-32.768-36.864-38.912 0-4.096 1.024-10.24 0-14.336-2.048-5.12-5.12-11.264-9.216-13.312-8.192-2.048-9.216-6.144-8.192-12.288 0-15.36-3.072-30.72-17.408-37.888-18.432-9.216-21.504-21.504-21.504-35.84 0-1.024 0-2.048 0-2.048-7.168-56.32-33.792-103.424-81.92-142.336-62.464-52.224-138.24-73.728-225.28-63.488-97.28 11.264-167.936 56.32-211.968 132.096-17.408 29.696-24.576 61.44-25.6 94.208 0 4.096-2.048 6.144-6.144 8.192-16.384 8.192-26.624 19.456-28.672 34.816-1.024 5.12-1.024 11.264-2.048 16.384 0 2.048-1.024 5.12-2.048 6.144-13.312 3.072-15.36 11.264-15.36 21.504 0 22.528 0 44.032 0 65.536 0 14.336 2.048 17.408 17.408 23.552zM825.344 485.376c1.024-10.24 2.048-19.456 15.36-23.552 0 0 1.024 0 2.048 0 0 15.36-1.024 30.72 0 46.080 0 25.6-12.288 47.104-33.792 63.488-31.744 24.576-70.656 31.744-111.616 33.792-2.048 0-5.12-2.048-7.168-3.072-8.192-8.192-18.432-12.288-30.72-12.288-16.384 1.024-33.792 0-51.2 1.024 28.672-12.288 54.272-28.672 75.776-50.176 12.288-11.264 22.528-24.576 30.72-38.912v9.216c0 12.288 7.168 18.432 22.528 18.432h30.72c32.768 0 55.296-16.384 57.344-44.032zM754.688 328.704c6.144 0 11.264 0 16.384 0 11.264 1.024 16.384 7.168 16.384 18.432 0 38.912 0 78.848 0 117.76 0 2.048 0 5.12 0 7.168 2.048 25.6-10.24 26.624-32.768 24.576v-167.936zM398.336 123.904c87.040-41.984 175.104-37.888 256 11.264 63.488 38.912 95.232 93.184 97.28 160.768-4.096 0-7.168 0-10.24 0-9.216-1.024-16.384 1.024-20.48 5.12-6.144-11.264-13.312-21.504-21.504-31.744-41.984-51.2-96.256-77.824-162.816-81.92-65.536-4.096-124.928 15.36-172.032 62.464-20.48 20.48-35.84 43.008-47.104 65.536 0-1.024 0-3.072 0-4.096-2.048-10.24-8.192-14.336-19.456-15.36-6.144 0-11.264 0-17.408 0 4.096-75.776 40.96-134.144 117.76-172.032zM245.76 349.184c0-16.384 5.12-20.48 23.552-20.48h9.216v167.936c-1.024 0-2.048 0-2.048 0-26.624 1.024-30.72-2.048-30.72-24.576v-122.88z"></path>
</svg>
