<?xml version="1.0" standalone="no"?>
<!DOCTYPE svg PUBLIC "-//W3C//DTD SVG 20010904//EN"
 "http://www.w3.org/TR/2001/REC-SVG-20010904/DTD/svg10.dtd">
<svg version="1.0" xmlns="http://www.w3.org/2000/svg"
 width="3440.000000pt" height="1440.000000pt" viewBox="0 0 3440.000000 1440.000000"
 preserveAspectRatio="xMidYMid meet">
<metadata>
Created by potrace 1.15, written by Peter Selinger 2001-2017
</metadata>
<g transform="translate(0.000000,1440.000000) scale(0.100000,-0.100000)"
fill="#000000" stroke="none">
<path d="M21820 14083 c-235 -17 -436 -55 -643 -123 -743 -245 -1287 -822
-1402 -1485 -82 -471 52 -1000 358 -1420 29 -38 54 -72 57 -75 3 -3 42 -44 88
-91 l84 -86 -76 -47 c-250 -156 -482 -390 -643 -649 -252 -408 -341 -913 -243
-1383 90 -432 370 -848 770 -1145 882 -655 2260 -742 3279 -208 282 148 546
359 724 579 321 398 461 868 406 1368 -62 570 -394 1099 -891 1419 l-87 57 77
80 c344 360 551 905 529 1391 -21 436 -191 808 -522 1141 -241 242 -503 408
-841 532 -307 113 -699 169 -1024 145z m292 -1268 c80 -7 214 -44 302 -84 212
-96 378 -277 448 -486 19 -59 23 -90 23 -200 -1 -115 -4 -139 -27 -203 -40
-111 -84 -178 -183 -278 -134 -135 -284 -215 -485 -256 -137 -29 -357 -21
-485 16 -417 122 -672 450 -625 804 48 365 385 653 805 691 50 4 106 7 125 5
19 -2 65 -6 102 -9z m28 -2620 c209 -16 449 -102 640 -230 217 -144 376 -352
440 -575 31 -107 38 -307 15 -421 -129 -639 -995 -1012 -1760 -758 -705 235
-980 901 -604 1461 57 84 197 222 289 285 209 140 444 222 695 242 98 8 132 8
285 -4z"/>
<path d="M6840 13874 c-879 -66 -1649 -535 -2101 -1280 -216 -356 -340 -732
-379 -1149 -6 -70 -10 -858 -10 -2177 l0 -2068 670 0 670 0 0 665 0 665 1330
0 1330 0 0 -665 0 -665 675 0 676 0 -4 2123 c-3 2332 1 2180 -63 2467 -241
1084 -1144 1911 -2254 2065 -114 15 -433 27 -540 19z m450 -1369 c119 -26 216
-63 340 -127 196 -101 290 -180 451 -376 93 -113 195 -333 242 -522 20 -82 21
-113 24 -847 l4 -763 -1331 0 -1331 0 4 758 c4 831 1 795 67 994 152 457 563
809 1041 892 110 20 383 14 489 -9z"/>
<path d="M10840 10540 l0 -3340 675 0 675 0 0 3340 0 3340 -675 0 -675 0 0
-3340z"/>
<path d="M13410 10540 l0 -3341 1188 4 c1155 3 1190 3 1317 24 504 82 947 252
1343 513 213 140 335 240 532 439 364 365 616 759 784 1223 123 342 182 658
193 1038 8 309 -15 559 -79 840 -232 1023 -955 1897 -1918 2318 -303 133 -584
209 -950 259 -97 14 -290 17 -1262 20 l-1148 4 0 -3341z m2272 1975 c649 -86
1220 -486 1517 -1065 114 -223 172 -404 207 -640 20 -141 15 -488 -9 -615 -39
-208 -94 -369 -187 -555 -309 -615 -897 -1019 -1589 -1089 -57 -6 -271 -11
-477 -11 l-374 0 0 1995 0 1995 399 0 c297 0 429 -4 513 -15z"/>
<path d="M25370 13206 l0 -676 1408 -2 1407 -3 65 -23 c207 -74 360 -230 426
-437 33 -100 37 -254 10 -355 -51 -195 -176 -350 -351 -435 -138 -67 -99 -65
-1157 -65 l-958 0 0 -675 0 -675 953 0 c918 0 957 -1 1031 -20 195 -50 344
-169 431 -345 49 -98 68 -183 68 -295 0 -257 -137 -478 -368 -590 -149 -73
-76 -70 -1600 -70 l-1365 0 0 -672 0 -673 1157 3 c1751 3 1773 4 1921 36 382
82 708 256 986 526 338 327 542 727 601 1178 17 131 19 357 5 487 -42 367
-208 758 -440 1040 l-58 71 61 74 c437 542 565 1278 337 1924 -220 623 -752
1113 -1386 1280 -238 62 -153 59 -1736 63 l-1448 4 0 -675z"/>
<path d="M21910 5315 c-30 -12 -56 -27 -57 -31 -2 -5 76 -49 173 -97 172 -86
176 -87 215 -76 22 7 38 16 37 20 -4 12 -291 209 -303 208 -5 0 -35 -11 -65
-24z"/>
<path d="M26068 5010 c-280 -44 -518 -262 -589 -538 -23 -91 -26 -284 -5 -383
15 -70 61 -180 96 -229 12 -17 18 -30 15 -30 -4 0 31 -38 77 -83 133 -134 255
-195 438 -218 163 -21 345 14 478 93 93 54 221 189 270 285 100 194 115 417
43 629 -72 210 -260 389 -476 452 -91 26 -255 36 -347 22z m237 -105 c132 -21
219 -67 320 -169 135 -136 188 -265 189 -461 1 -130 -12 -191 -66 -304 -33
-68 -56 -101 -122 -166 -126 -125 -249 -175 -431 -175 -112 0 -198 20 -284 65
-319 168 -433 588 -249 913 38 68 155 188 220 226 83 48 199 81 303 85 17 0
70 -6 120 -14z"/>
<path d="M30415 5009 c-258 -38 -472 -227 -557 -493 -29 -90 -36 -318 -13
-420 56 -253 271 -471 542 -548 100 -29 320 -31 457 -4 92 18 216 62 216 77 0
4 -8 24 -17 44 -12 26 -21 34 -32 29 -121 -54 -433 -82 -561 -50 -230 58 -426
250 -484 473 -23 87 -21 241 4 337 49 194 188 358 360 426 123 48 337 46 565
-5 60 -14 113 -25 116 -25 4 0 14 20 22 45 l16 45 -52 15 c-190 54 -427 76
-582 54z"/>
<path d="M2858 5003 l-88 -4 0 -724 0 -724 58 -8 c31 -4 176 -8 322 -8 227 0
274 3 330 18 260 74 420 224 482 454 30 113 30 344 0 458 -69 258 -266 447
-542 520 -67 18 -362 27 -562 18z m527 -118 c117 -32 203 -83 296 -175 93 -92
134 -161 166 -280 24 -90 24 -300 -1 -390 -53 -193 -186 -323 -391 -382 -74
-21 -98 -23 -310 -22 -127 0 -239 3 -248 7 -16 6 -17 52 -17 631 l0 625 58 4
c122 9 386 -1 447 -18z"/>
<path d="M8888 5003 l-88 -4 0 -724 0 -724 58 -8 c31 -4 176 -8 322 -8 227 0
274 3 330 18 260 74 420 224 482 454 30 113 30 344 0 458 -69 258 -266 447
-542 520 -67 18 -362 27 -562 18z m527 -118 c117 -32 203 -83 296 -175 93 -92
134 -161 166 -280 24 -90 24 -300 -1 -390 -53 -193 -186 -323 -391 -382 -74
-21 -98 -23 -310 -22 -127 0 -239 3 -248 7 -16 6 -17 52 -17 631 l0 625 58 4
c122 9 386 -1 447 -18z"/>
<path d="M13218 5003 l-88 -4 0 -724 0 -724 58 -8 c31 -4 176 -8 322 -8 227 0
274 3 330 18 260 74 420 224 482 454 30 113 30 344 0 458 -69 258 -266 447
-542 520 -67 18 -362 27 -562 18z m527 -118 c117 -32 203 -83 296 -175 93 -92
134 -161 166 -280 24 -90 24 -300 -1 -390 -53 -193 -186 -323 -391 -382 -74
-21 -98 -23 -310 -22 -127 0 -239 3 -248 7 -16 6 -17 52 -17 631 l0 625 58 4
c122 9 386 -1 447 -18z"/>
<path d="M23968 5003 l-88 -4 0 -724 0 -724 58 -8 c31 -4 176 -8 322 -8 227 0
274 3 330 18 260 74 420 224 482 454 30 113 30 344 0 458 -69 258 -266 447
-542 520 -67 18 -362 27 -562 18z m527 -118 c117 -32 203 -83 296 -175 93 -92
134 -161 166 -280 24 -90 24 -300 -1 -390 -53 -193 -186 -323 -391 -382 -74
-21 -98 -23 -310 -22 -127 0 -239 3 -248 7 -16 6 -17 52 -17 631 l0 625 58 4
c122 9 386 -1 447 -18z"/>
<path d="M1122 4953 c-107 -251 -592 -1404 -592 -1408 0 -3 26 -5 58 -5 l58 0
104 250 105 250 321 0 321 0 105 -247 104 -248 64 -3 c56 -3 62 -1 58 15 -3
10 -141 339 -308 731 l-303 712 -37 0 c-35 0 -39 -3 -58 -47z m204 -504 c68
-163 124 -299 124 -303 0 -3 -124 -6 -275 -6 -151 0 -275 2 -275 4 0 2 56 135
124 297 68 162 129 312 136 334 l13 40 15 -35 c7 -19 70 -168 138 -331z"/>
<path d="M2130 4270 l0 -730 55 0 55 0 0 730 0 730 -55 0 -55 0 0 -730z"/>
<path d="M4430 4270 l0 -730 355 0 355 0 0 55 0 55 -300 0 -300 0 0 320 0 320
260 0 260 0 0 45 0 45 -260 0 -260 0 0 260 0 260 290 0 290 0 0 50 0 50 -345
0 -345 0 0 -730z"/>
<path d="M6370 4270 l0 -730 55 0 55 0 0 730 0 730 -55 0 -55 0 0 -730z"/>
<path d="M7010 4270 l0 -730 55 0 55 0 0 616 0 615 57 -68 c32 -37 275 -314
541 -615 433 -491 486 -548 512 -548 l30 0 0 730 0 730 -55 0 -55 0 -2 -615
-3 -615 -64 77 c-36 43 -278 320 -539 616 -423 479 -477 537 -503 537 l-29 0
0 -730z"/>
<path d="M10470 4270 l0 -730 55 0 55 0 0 730 0 730 -55 0 -55 0 0 -730z"/>
<path d="M10860 4996 c0 -3 11 -31 25 -62 14 -32 23 -59 21 -62 -3 -2 0 -9 6
-16 6 -6 138 -304 293 -661 l281 -650 39 0 39 0 313 720 c171 396 312 723 313
728 0 4 -27 7 -59 7 l-59 0 -268 -630 c-148 -346 -271 -629 -274 -630 -3 0
-127 282 -275 628 l-270 627 -63 3 c-34 2 -62 1 -62 -2z"/>
<path d="M12480 4270 l0 -730 55 0 55 0 0 730 0 730 -55 0 -55 0 0 -730z"/>
<path d="M14772 4508 c4 -470 5 -497 26 -572 32 -116 69 -183 142 -257 112
-113 225 -152 435 -153 151 0 236 18 329 67 88 47 158 121 205 219 68 141 71
174 71 713 l0 475 -54 0 -55 0 -4 -492 c-4 -530 -4 -530 -60 -650 -71 -152
-216 -231 -427 -231 -163 -1 -278 41 -362 131 -57 61 -84 112 -109 209 -17 70
-19 114 -19 555 l0 478 -61 0 -60 0 3 -492z"/>
<path d="M16510 4270 l0 -730 355 0 355 0 0 55 0 55 -300 0 -300 0 0 320 0
320 260 0 260 0 0 45 0 45 -260 0 -260 0 0 260 0 260 290 0 290 0 0 50 0 50
-345 0 -345 0 0 -730z"/>
<path d="M17630 4270 l0 -730 390 0 390 0 0 55 0 55 -335 0 -335 0 0 675 0
675 -55 0 -55 0 0 -730z"/>
<path d="M18710 4270 l0 -730 390 0 390 0 0 55 0 55 -335 0 -335 0 0 675 0
675 -55 0 -55 0 0 -730z"/>
<path d="M19790 4270 l0 -730 355 0 355 0 0 55 0 55 -300 0 -300 0 0 320 0
320 260 0 260 0 0 45 0 45 -260 0 -260 0 0 260 0 260 290 0 290 0 0 50 0 50
-345 0 -345 0 0 -730z"/>
<path d="M22062 4953 c-107 -251 -592 -1404 -592 -1408 0 -3 26 -5 58 -5 l58
0 104 250 105 250 321 0 321 0 105 -247 104 -248 64 -3 c56 -3 62 -1 58 15 -3
10 -141 339 -308 731 l-303 712 -37 0 c-35 0 -39 -3 -58 -47z m204 -504 c68
-163 124 -299 124 -303 0 -3 -124 -6 -275 -6 -151 0 -275 2 -275 4 0 2 56 135
124 297 68 162 129 312 136 334 l13 40 15 -35 c7 -19 70 -168 138 -331z"/>
<path d="M27456 4973 c-3 -16 -56 -332 -116 -703 -61 -371 -113 -687 -116
-702 -6 -28 -5 -28 50 -28 49 0 56 2 61 23 10 42 175 1121 175 1144 0 12 4 24
8 27 8 5 157 -346 153 -360 -2 -4 1 -10 6 -13 5 -3 61 -132 125 -286 64 -154
133 -320 154 -368 l36 -88 36 3 36 3 218 460 c119 253 239 508 266 568 l49
107 7 -52 c4 -29 43 -299 86 -601 44 -301 80 -552 80 -557 0 -6 27 -10 60 -10
33 0 60 4 60 8 0 5 -49 331 -110 726 -60 394 -110 719 -110 722 0 2 -17 4 -38
4 l-38 0 -279 -590 -280 -589 -18 42 c-9 23 -122 288 -250 589 l-232 548 -37
0 c-32 0 -37 -3 -42 -27z"/>
<path d="M29280 4270 l0 -730 55 0 55 0 0 730 0 730 -55 0 -55 0 0 -730z"/>
<path d="M31430 4270 l0 -730 55 0 55 0 0 730 0 730 -55 0 -55 0 0 -730z"/>
<path d="M32070 4270 l0 -730 390 0 390 0 0 55 0 55 -335 0 -335 0 0 675 0
675 -55 0 -55 0 0 -730z"/>
<path d="M33150 4270 l0 -730 355 0 355 0 0 55 0 55 -300 0 -300 0 0 320 0
320 260 0 260 0 0 45 0 45 -260 0 -260 0 0 260 0 260 290 0 290 0 0 50 0 50
-345 0 -345 0 0 -730z"/>
</g>
</svg>
