<!-- Generated by IcoMoon.io -->
<svg version="1.1" xmlns="http://www.w3.org/2000/svg" width="1024" height="1024" viewBox="0 0 1024 1024">
<title></title>
<g id="icomoon-ignore">
</g>
<path d="M948.224 488.448l-109.568-82.944 39.936-131.072c3.072-9.216 1.024-18.432-4.096-25.6s-14.336-12.288-22.528-12.288l-138.24-2.048-45.056-130.048c-2.048-9.216-9.216-15.36-18.432-18.432-8.192-3.072-18.432-1.024-25.6 4.096l-112.64 78.848-112.64-78.848c-7.168-5.12-17.408-7.168-25.6-4.096-9.216 3.072-15.36 9.216-18.432 18.432l-45.056 130.048-137.216 2.048c-9.216 0-18.432 5.12-23.552 12.288s-7.168 16.384-4.096 25.6l39.936 131.072-109.568 82.944c-7.168 6.144-11.264 14.336-11.264 23.552s4.096 18.432 11.264 23.552l109.568 82.944-39.936 131.072c-3.072 9.216-1.024 18.432 4.096 25.6 5.12 8.192 14.336 12.288 23.552 12.288l137.216 3.072 45.056 130.048c3.072 8.192 9.216 15.36 18.432 17.408 8.192 3.072 18.432 2.048 25.6-3.072l112.64-78.848 112.64 78.848c5.12 3.072 11.264 5.12 16.384 5.12 3.072 0 6.144-1.024 9.216-2.048 9.216-2.048 15.36-9.216 18.432-17.408l45.056-130.048 137.216-3.072c9.216 0 18.432-4.096 23.552-12.288 5.12-7.168 7.168-16.384 4.096-25.6l-39.936-131.072 109.568-82.944c7.168-5.12 12.288-14.336 12.288-23.552s-5.12-17.408-12.288-23.552zM332.8 532.48c-11.264-6.144-21.504-13.312-28.672-23.552-7.168-9.216-13.312-19.456-16.384-31.744-4.096-12.288-6.144-24.576-6.144-37.888s2.048-25.6 6.144-37.888c3.072-12.288 9.216-23.552 16.384-32.768 7.168-10.24 17.408-17.408 28.672-23.552 12.288-5.12 25.6-8.192 41.984-8.192 15.36 0 28.672 3.072 40.96 8.192s21.504 13.312 28.672 23.552c8.192 9.216 13.312 19.456 17.408 32.768 3.072 12.288 5.12 24.576 5.12 37.888s-2.048 25.6-5.12 37.888c-4.096 12.288-9.216 22.528-17.408 31.744-7.168 10.24-17.408 17.408-28.672 23.552s-25.6 8.192-40.96 8.192c-16.384 0-29.696-3.072-41.984-8.192zM429.056 680.96c-11.264 2.048-21.504 3.072-31.744 3.072-11.264 0-22.528-1.024-34.816-3.072l232.448-338.944c10.24-2.048 21.504-3.072 33.792-3.072 9.216 0 20.48 1.024 32.768 3.072l-232.448 338.944zM736.256 623.616c-3.072 12.288-9.216 23.552-16.384 32.768-8.192 9.216-17.408 16.384-29.696 22.528-11.264 6.144-24.576 8.192-40.96 8.192-15.36 0-29.696-2.048-40.96-8.192-12.288-6.144-21.504-13.312-28.672-22.528-8.192-9.216-13.312-20.48-17.408-32.768-3.072-12.288-5.12-24.576-5.12-37.888s2.048-25.6 5.12-37.888c4.096-12.288 9.216-23.552 17.408-32.768 7.168-9.216 16.384-17.408 28.672-22.528 11.264-6.144 25.6-9.216 40.96-9.216 16.384 0 29.696 3.072 40.96 9.216 12.288 5.12 21.504 13.312 29.696 22.528 7.168 9.216 13.312 20.48 16.384 32.768 4.096 12.288 6.144 24.576 6.144 37.888s-2.048 25.6-6.144 37.888zM400.384 480.256c5.12-10.24 8.192-24.576 8.192-40.96 0-17.408-3.072-31.744-8.192-40.96s-14.336-15.36-25.6-15.36c-12.288 0-20.48 5.12-25.6 15.36-5.12 9.216-8.192 23.552-8.192 40.96 0 16.384 3.072 29.696 8.192 40.96 5.12 10.24 13.312 15.36 25.6 15.36s19.456-5.12 25.6-15.36zM649.216 529.408c-11.264 0-19.456 5.12-25.6 15.36-5.12 10.24-8.192 23.552-8.192 40.96s3.072 30.72 8.192 40.96 14.336 15.36 25.6 15.36c12.288 0 20.48-5.12 25.6-15.36 6.144-10.24 8.192-23.552 8.192-40.96s-2.048-30.72-8.192-40.96c-5.12-10.24-13.312-15.36-25.6-15.36z"></path>
</svg>
