<!-- Generated by IcoMoon.io -->
<svg version="1.1" xmlns="http://www.w3.org/2000/svg" width="1024" height="1024" viewBox="0 0 1024 1024">
<title></title>
<g id="icomoon-ignore">
</g>
<path d="M623.616 814.080c-3.072-65.536-46.080-121.856-110.592-139.264-3.072-1.024-5.12-2.048-8.192-2.048-25.6 15.36-54.272 24.576-86.016 24.576s-61.44-9.216-87.040-25.6c-65.536 14.336-115.712 74.752-116.736 140.288-1.024 34.816-2.048 68.608-2.048 103.424 0 31.744-2.048 32.768 14.336 36.864 0 0 210.944 49.152 382.976 1.024 9.216-4.096 14.336-9.216 14.336-19.456-1.024-39.936 0-79.872-1.024-119.808zM262.144 673.792c13.312-10.24 27.648-16.384 43.008-23.552-27.648-27.648-46.080-65.536-48.128-107.52-1.024 0-2.048 0-3.072 0-30.72 0-62.464-1.024-94.208 0-36.864 1.024-68.608 11.264-95.232 30.72-12.288 10.24-62.464 58.368-64.512 186.368v63.488c52.224 16.384 106.496 27.648 161.792 34.816 17.408 2.048 24.576-1.024 23.552-21.504-2.048-66.56 21.504-121.856 76.8-162.816zM747.52 565.248c-52.224-31.744-110.592-21.504-166.912-22.528-2.048 41.984-20.48 79.872-48.128 107.52 25.6 11.264 49.152 24.576 67.584 45.056 38.912 40.96 55.296 90.112 51.2 145.408-1.024 13.312 3.072 19.456 18.432 18.432 47.104-3.072 93.184-12.288 137.216-29.696 11.264-4.096 16.384-10.24 16.384-22.528-1.024-39.936 0-80.896-2.048-120.832-2.048-53.248-28.672-93.184-73.728-120.832zM419.84 659.456c65.536-1.024 118.784-54.272 118.784-119.808 0-66.56-52.224-119.808-118.784-120.832-66.56 0-121.856 53.248-121.856 119.808 0 65.536 56.32 121.856 121.856 120.832zM210.944 535.552c3.072 0 9.216 0 15.36-1.024 11.264-3.072 22.528-5.12 30.72-10.24 4.096-51.2 30.72-95.232 70.656-122.88 0-3.072-1.024-6.144-1.024-9.216-12.288-60.416-70.656-104.448-129.024-97.28-65.536 8.192-113.664 61.44-110.592 122.88 4.096 66.56 55.296 116.736 123.904 117.76zM959.488 452.608c-26.624-19.456-58.368-29.696-95.232-30.72-31.744-1.024-63.488 0-94.208 0-1.024 0-2.048 0-3.072 0-2.048 41.984-20.48 79.872-48.128 107.52 15.36 7.168 30.72 13.312 43.008 23.552 55.296 39.936 78.848 96.256 76.8 162.816-1.024 20.48 6.144 23.552 24.576 21.504 54.272-7.168 108.544-18.432 160.768-34.816v-63.488c-2.048-128-52.224-176.128-64.512-186.368zM766.976 403.456c9.216 5.12 19.456 7.168 31.744 9.216 5.12 2.048 11.264 2.048 14.336 2.048 68.608-1.024 119.808-51.2 123.904-117.76 3.072-61.44-45.056-115.712-110.592-122.88-58.368-7.168-116.736 36.864-129.024 97.28 0 3.072-1.024 6.144-1.024 9.216 39.936 27.648 66.56 71.68 70.656 122.88zM499.712 389.12c0 2.048-1.024 4.096-1.024 6.144 47.104 26.624 79.872 75.776 81.92 134.144 1.024 0 3.072 1.024 5.12 1.024 76.8 21.504 152.576-36.864 152.576-116.736-1.024-62.464-47.104-112.64-111.616-118.784-56.32-6.144-113.664 35.84-126.976 94.208zM478.208 385.024c3.072-21.504 12.288-39.936 23.552-61.44-60.416-5.12-117.76-4.096-180.224 0 16.384 22.528 23.552 44.032 26.624 65.536 21.504-10.24 45.056-15.36 70.656-15.36 20.48 0 40.96 4.096 59.392 11.264zM411.648 312.32h1.024c41.984 0 83.968-21.504 108.544-58.368 10.24-15.36 17.408-31.744 20.48-49.152 1.024-8.192 2.048-16.384 2.048-24.576 0-63.488-46.080-116.736-106.496-129.024h-3.072c-7.168-1.024-15.36-2.048-22.528-2.048-72.704 0-131.072 58.368-131.072 131.072s58.368 132.096 131.072 132.096z"></path>
</svg>
