<!-- Generated by IcoMoon.io -->
<svg version="1.1" xmlns="http://www.w3.org/2000/svg" width="1024" height="1024" viewBox="0 0 1024 1024">
<title></title>
<g id="icomoon-ignore">
</g>
<path d="M512 960.512c246.784 0 448.512-201.728 448.512-448.512 0-187.392-115.712-348.16-279.552-414.72-13.312-6.144-26.624-10.24-40.96-14.336-40.96-12.288-82.944-19.456-128-19.456-246.784 0-447.488 201.728-447.488 448.512s200.704 448.512 447.488 448.512zM715.776 160.768h4.096c75.776 44.032 135.168 112.64 169.984 194.56-4.096-3.072-8.192-5.12-13.312-5.12-2.048 0-4.096 0-5.12-1.024-6.144 0-9.216-3.072-11.264-8.192-1.024-3.072-1.024-5.12-2.048-7.168 0-1.024-1.024-2.048-1.024-3.072-1.024 1.024-1.024 1.024-2.048 1.024 0 1.024-1.024 2.048-2.048 3.072s-2.048 2.048-3.072 4.096c-3.072 3.072-5.12 3.072-8.192-1.024 0-1.024-1.024-2.048-1.024-3.072l-2.048-4.096c0-2.048-1.024-4.096-2.048-6.144-2.048-4.096-3.072-4.096-6.144-1.024l-1.024 2.048c-1.024 1.024-2.048 2.048-3.072 2.048-3.072 3.072-6.144 3.072-10.24 1.024l-1.024-2.048c-2.048-1.024-3.072-3.072-3.072-5.12 0-3.072 0-6.144 0-8.192s-1.024-4.096-1.024-5.12c-1.024-1.024-2.048-2.048-3.072-1.024s-2.048 2.048-4.096 3.072c-1.024-1.024-2.048-1.024-4.096-2.048-6.144-3.072-12.288-5.12-18.432-8.192-2.048-1.024-3.072-2.048-5.12-4.096-3.072 11.264-4.096 21.504-5.12 32.768-1.024 0-3.072 0-4.096 1.024-5.12 1.024-10.24 2.048-15.36 3.072-8.192 3.072-15.36 1.024-21.504-4.096-5.12-4.096-9.216-8.192-12.288-13.312-3.072-7.168-7.168-14.336-11.264-20.48 0-1.024-1.024-2.048-1.024-3.072 2.048-2.048 4.096-2.048 6.144-4.096 9.216-5.12 18.432-8.192 28.672-7.168 2.048 0 3.072 0 4.096-1.024 0 0 1.024-1.024 2.048-1.024 4.096-2.048 8.192-4.096 11.264-7.168 4.096-4.096 6.144-8.192 9.216-11.264 1.024-2.048 3.072-3.072 4.096-5.12-2.048-3.072-3.072-7.168-4.096-10.24-2.048-2.048-2.048-4.096-1.024-7.168 0-3.072 1.024-6.144 1.024-10.24 0-1.024 1.024-2.048-1.024-3.072-4.096-1.024-10.24-2.048-15.36-2.048-2.048 0-4.096-1.024-5.12-3.072-1.024-3.072-3.072-6.144-4.096-9.216-2.048-2.048-3.072-2.048-5.12-3.072-3.072 0-6.144 0-9.216-1.024-2.048 0-4.096-1.024-5.12-2.048-3.072-3.072-4.096-6.144-5.12-9.216-1.024-5.12-2.048-9.216-2.048-14.336 0-6.144 0-12.288 1.024-19.456zM696.32 206.848c-1.024-3.072-1.024-4.096 1.024-5.12 2.048-2.048 5.12-3.072 7.168-1.024 2.048 1.024 3.072 2.048 4.096 3.072 2.048 3.072 5.12 6.144 8.192 7.168 5.12 2.048 8.192 6.144 11.264 9.216 5.12 7.168 9.216 14.336 11.264 23.552 0 0 0 1.024 0 2.048-3.072 3.072-7.168 5.12-10.24 7.168-2.048 1.024-3.072 2.048-4.096 2.048-9.216 2.048-14.336-2.048-16.384-9.216-1.024-5.12-2.048-11.264-3.072-16.384-1.024 0-2.048 0-2.048 0-4.096 2.048-7.168 3.072-10.24 5.12-3.072-4.096-4.096-7.168-6.144-11.264 3.072-3.072 7.168-5.12 10.24-8.192 1.024-3.072-1.024-5.12-1.024-8.192zM692.224 376.832c3.072-1.024 5.12-2.048 7.168-4.096 4.096-5.12 9.216-11.264 13.312-16.384 1.024-2.048 3.072-3.072 5.12-4.096 7.168-2.048 14.336-4.096 21.504-6.144 6.144-2.048 12.288-3.072 18.432-3.072 11.264-1.024 23.552 1.024 33.792 5.12 2.048 1.024 4.096 1.024 5.12 1.024 7.168-1.024 13.312-1.024 20.48 0 6.144 1.024 11.264 3.072 16.384 7.168 9.216 7.168 18.432 14.336 27.648 21.504 5.12 4.096 5.12 4.096 11.264 3.072 9.216 0 18.432 0 26.624 2.048 14.336 40.96 21.504 83.968 21.504 129.024 0 138.24-69.632 261.12-175.104 334.848 1.024-1.024 1.024-2.048 1.024-4.096 1.024-2.048 2.048-4.096 3.072-7.168 3.072-7.168 6.144-14.336 9.216-21.504l11.264-23.552c2.048-5.12 2.048-10.24 1.024-15.36-1.024-6.144-2.048-12.288-3.072-17.408-1.024-6.144-2.048-12.288 1.024-18.432 3.072-11.264 9.216-21.504 17.408-29.696 3.072-2.048 5.12-5.12 7.168-8.192 3.072-4.096 6.144-8.192 7.168-12.288 3.072-6.144 3.072-12.288 2.048-18.432-1.024-4.096-2.048-9.216-4.096-13.312-1.024-4.096-3.072-7.168-4.096-11.264-2.048-6.144-2.048-13.312 0-19.456 1.024-4.096 2.048-7.168 4.096-11.264l4.096-12.288c2.048-5.12 3.072-11.264 3.072-16.384-1.024-4.096-1.024-8.192-2.048-12.288-1.024-3.072-3.072-4.096-7.168-3.072-1.024 1.024-2.048 1.024-4.096 2.048-4.096 2.048-7.168 1.024-9.216-2.048-2.048-2.048-4.096-4.096-7.168-4.096-2.048-1.024-4.096-2.048-7.168-2.048-8.192-1.024-16.384 0-24.576 0-6.144 1.024-12.288 1.024-18.432 1.024-1.024 0-3.072-1.024-5.12-1.024-5.12-1.024-9.216-2.048-14.336-5.12-8.192-3.072-15.36-8.192-22.528-14.336-11.264-9.216-21.504-19.456-31.744-29.696-2.048-1.024-2.048-3.072-3.072-4.096-1.024-3.072-1.024-5.12-1.024-7.168-1.024-11.264 0-21.504 2.048-31.744 2.048-11.264 5.12-22.528 8.192-32.768 2.048-6.144 3.072-12.288 3.072-19.456 0-2.048 0-5.12-2.048-7.168-1.024-2.048-1.024-4.096 0-6.144 1.024-3.072 3.072-7.168 5.12-10.24 6.144-10.24 16.384-17.408 27.648-20.48zM610.304 161.792c-3.072 3.072-4.096 6.144-5.12 9.216 0 1.024-1.024 3.072-1.024 4.096-7.168-1.024-12.288-2.048-18.432-3.072-3.072-1.024-5.12-2.048-7.168-4.096-1.024 0-2.048-1.024-3.072-2.048-3.072-3.072-2.048-7.168 2.048-9.216 7.168-3.072 15.36-5.12 22.528-8.192 2.048-1.024 2.048-1.024 3.072 0 3.072 1.024 5.12 3.072 7.168 5.12 3.072 2.048 3.072 5.12 0 8.192zM515.072 123.904c3.072-6.144 5.12-13.312 8.192-20.48 28.672 1.024 57.344 4.096 83.968 11.264-4.096 6.144-7.168 11.264-11.264 17.408-5.12 1.024-10.24 2.048-16.384 3.072-2.048 0-3.072 1.024-4.096 2.048l-17.408 20.48c-5.12 6.144-10.24 12.288-15.36 18.432 0 1.024-1.024 1.024-2.048 2.048-4.096-1.024-6.144-4.096-9.216-6.144-5.12-4.096-8.192-10.24-10.24-15.36-4.096-8.192-6.144-16.384-6.144-25.6-1.024-2.048-1.024-4.096 0-7.168zM191.488 376.832c1.024-6.144 2.048-11.264 2.048-17.408-1.024-1.024-3.072-1.024-4.096-2.048-7.168-3.072-13.312-6.144-19.456-11.264-4.096-3.072-7.168-6.144-9.216-10.24-3.072-5.12-5.12-11.264-4.096-17.408 0-3.072 1.024-7.168 1.024-10.24 70.656-121.856 201.728-203.776 352.256-204.8l3.072 8.192c1.024 0 1.024 1.024 1.024 2.048-5.12 4.096-9.216 7.168-14.336 11.264-4.096 4.096-8.192 8.192-13.312 11.264-2.048-4.096-5.12-7.168-9.216-9.216-6.144-5.12-4.096-4.096-11.264-4.096-5.12 1.024-10.24 1.024-15.36 3.072-2.048 1.024-5.12 1.024-8.192 1.024-2.048 0-4.096-1.024-5.12-3.072-1.024 0-1.024-1.024-1.024-1.024-1.024-2.048-3.072-2.048-5.12-1.024-1.024 0-3.072 1.024-4.096 1.024-2.048 2.048-4.096 3.072-6.144 5.12s-5.12 4.096-7.168 6.144l-13.312 8.192c-1.024 1.024-2.048 2.048-2.048 4.096-1.024 3.072-2.048 5.12-2.048 8.192 0 4.096 0 8.192 1.024 12.288 2.048 5.12 6.144 7.168 11.264 5.12 6.144-2.048 11.264-5.12 16.384-9.216 3.072-3.072 6.144-6.144 7.168-10.24 1.024 0 1.024-1.024 1.024-2.048 1.024-1.024 2.048-1.024 4.096-1.024 1.024 1.024 2.048 1.024 4.096 2.048 3.072 1.024 6.144 1.024 9.216 0 1.024-1.024 3.072-2.048 4.096-3.072 2.048-1.024 3.072-3.072 4.096-4.096 2.048-2.048 4.096-3.072 7.168-5.12 4.096-1.024 8.192-1.024 11.264 4.096 2.048 3.072 4.096 6.144 8.192 8.192 1.024 1.024 2.048 2.048 3.072 3.072 2.048 2.048 3.072 4.096 2.048 6.144 0 3.072-2.048 6.144-3.072 8.192-2.048 2.048-3.072 4.096-4.096 6.144s-1.024 3.072-1.024 4.096c0 1.024 1.024 2.048 2.048 2.048 2.048 0 3.072-1.024 5.12-1.024 1.024 0 2.048-1.024 3.072-1.024 0 9.216-2.048 18.432-6.144 26.624-1.024 2.048-2.048 3.072-3.072 4.096-4.096 3.072-8.192 5.12-12.288 4.096s-7.168-2.048-9.216-5.12-10.24-4.096-15.36 1.024c-1.024 2.048-2.048 3.072-3.072 5.12s-3.072 3.072-5.12 4.096c-9.216 2.048-18.432 3.072-27.648 2.048-1.024 0-3.072 0-4.096 0-6.144 2.048-12.288 4.096-18.432 5.12-2.048 1.024-4.096 2.048-6.144 3.072-4.096 3.072-8.192 5.12-13.312 6.144-4.096 1.024-9.216 2.048-13.312-1.024-14.336 12.288-29.696 20.48-47.104 26.624-1.024 6.144-2.048 12.288-3.072 19.456l-4.096 22.528c0 2.048-1.024 3.072-3.072 3.072-2.048 1.024-4.096 0-5.12-1.024-2.048-2.048-3.072-4.096-4.096-5.12-2.048-5.12-4.096-10.24-4.096-16.384-1.024-7.168-5.12-12.288-11.264-15.36-9.216-4.096-18.432-6.144-27.648-4.096-15.36 2.048-28.672 9.216-38.912 21.504-9.216 9.216-9.216 9.216-12.288 22.528 0 5.12-1.024 10.24 1.024 14.336 1.024 5.12 5.12 8.192 9.216 9.216 3.072 1.024 6.144 1.024 8.192 0l9.216-1.024c0-1.024 1.024-1.024 2.048 0 2.048 0 4.096 2.048 6.144 4.096 1.024 2.048 2.048 4.096 1.024 7.168-1.024 2.048-3.072 4.096-4.096 6.144-3.072 2.048-5.12 3.072-7.168 5.12-1.024 1.024-2.048 1.024-3.072 2.048-4.096 4.096-4.096 8.192 0 11.264 1.024 1.024 2.048 1.024 3.072 2.048s2.048 1.024 3.072 2.048c-1.024 2.048-1.024 5.12-1.024 8.192-1.024 6.144-1.024 13.312 0 20.48 0 6.144 3.072 11.264 8.192 15.36 3.072 3.072 7.168 5.12 11.264 7.168 2.048 1.024 4.096 2.048 6.144 2.048 7.168 2.048 13.312 1.024 18.432-4.096 2.048-3.072 4.096-5.12 6.144-8.192 3.072-4.096 7.168-6.144 13.312-5.12 2.048 0 5.12 2.048 7.168 4.096 3.072 2.048 6.144 4.096 9.216 5.12 4.096 2.048 8.192 4.096 12.288 6.144 2.048 1.024 4.096 2.048 5.12 2.048 12.288 3.072 22.528 9.216 30.72 19.456 2.048 2.048 3.072 3.072 6.144 4.096 11.264 4.096 21.504 9.216 30.72 17.408 12.288 10.24 21.504 21.504 25.6 36.864 1.024 3.072 3.072 6.144 5.12 9.216 3.072 2.048 5.12 5.12 7.168 8.192 2.048 4.096 4.096 8.192 7.168 12.288 0 1.024 1.024 2.048 1.024 3.072 3.072 1.024 4.096 1.024 6.144 1.024 13.312 3.072 25.6 8.192 36.864 15.36 6.144 4.096 11.264 8.192 15.36 14.336 2.048 1.024 2.048 3.072 2.048 5.12 1.024 17.408-6.144 31.744-20.48 41.984-2.048 1.024-3.072 3.072-4.096 5.12-4.096 10.24-7.168 20.48-11.264 30.72-1.024 2.048-2.048 4.096-3.072 5.12l-15.36 22.528c-2.048 2.048-4.096 4.096-6.144 5.12s-4.096 2.048-6.144 3.072c-7.168 3.072-14.336 6.144-22.528 7.168-2.048 1.024-4.096 2.048-5.12 3.072-5.12 7.168-10.24 13.312-15.36 20.48-1.024 1.024-1.024 2.048-2.048 2.048-5.12 9.216-11.264 18.432-16.384 26.624-2.048 2.048-3.072 4.096-5.12 5.12-8.192 6.144-16.384 11.264-25.6 17.408-2.048 1.024-4.096 3.072-6.144 5.12-4.096 4.096-8.192 8.192-12.288 12.288-1.024 1.024-2.048 2.048-3.072 3.072l-11.264 25.6c-1.024 2.048-1.024 4.096-1.024 5.12 3.072 14.336 5.12 28.672 8.192 43.008 0 1.024 0 3.072 0 4.096-1.024 0-2.048 0-3.072 0-7.168-4.096-14.336-8.192-20.48-12.288-10.24-10.24-18.432-21.504-25.6-32.768-1.024-1.024-1.024-3.072-1.024-4.096-2.048-11.264-3.072-22.528-5.12-33.792 0-1.024 0-2.048-1.024-3.072-2.048-3.072-3.072-6.144-3.072-9.216-2.048-8.192-1.024-15.36 0-22.528l4.096-27.648c0-1.024 0-2.048-1.024-3.072-2.048-3.072-2.048-6.144-3.072-10.24 0-7.168 1.024-13.312 3.072-20.48 1.024-2.048 1.024-4.096 1.024-7.168l4.096-23.552c0-3.072 1.024-7.168 1.024-10.24-1.024 0-1.024-1.024-2.048-1.024-4.096-4.096-7.168-9.216-8.192-14.336-1.024-4.096-1.024-8.192 0-12.288 1.024-3.072 1.024-6.144 2.048-9.216l-4.096-2.048c-7.168-5.12-13.312-10.24-18.432-17.408-5.12-6.144-11.264-12.288-16.384-19.456-2.048-3.072-3.072-6.144-5.12-8.192-2.048-5.12-4.096-10.24-2.048-16.384 0-1.024 0-2.048-1.024-3.072-3.072-9.216-3.072-18.432-3.072-27.648 1.024-7.168 3.072-12.288 6.144-18.432 2.048-3.072 4.096-6.144 7.168-10.24 4.096-5.12 8.192-11.264 12.288-17.408 4.096-5.12 6.144-11.264 7.168-18.432 1.024-3.072 1.024-6.144 1.024-9.216 0-5.12-2.048-9.216-6.144-12.288-5.12-3.072-9.216-6.144-13.312-9.216-3.072-2.048-4.096-4.096-4.096-7.168-2.048-6.144-3.072-12.288-5.12-18.432 0-2.048-1.024-4.096-3.072-5.12-3.072-3.072-5.12-5.12-8.192-7.168l-3.072-3.072zM311.296 363.52c0-1.024 1.024-1.024 2.048-1.024l9.216-5.12 7.168-3.072c1.024 0 2.048 0 2.048-1.024 3.072 2.048 5.12 3.072 8.192 5.12 2.048 2.048 5.12 2.048 8.192 3.072-1.024 4.096-1.024 7.168-3.072 10.24-2.048 0-3.072 0-4.096-1.024-5.12-2.048-10.24-3.072-16.384-3.072h-6.144c-2.048 0-4.096 0-7.168 0-1.024 0-2.048 0-2.048-2.048-1.024-1.024 1.024-2.048 2.048-2.048zM300.032 342.016c-9.216-1.024-18.432-3.072-27.648-5.12-3.072 0-5.12 0-7.168-3.072 2.048-6.144 6.144-9.216 12.288-10.24 5.12-1.024 9.216 0 12.288 3.072 5.12 5.12 12.288 7.168 18.432 7.168 4.096 0 8.192 1.024 11.264 2.048 1.024 0 3.072 1.024 4.096 2.048 0 0 0 1.024 0 2.048s-1.024 2.048-1.024 2.048c-3.072 0-5.12 1.024-8.192 1.024-1.024 0-2.048 0-4.096 0-3.072 0-7.168-1.024-10.24-1.024z"></path>
</svg>
